<svg width="61" height="375" viewBox="0 0 61 375" fill="none" xmlns="http://www.w3.org/2000/svg">
<path d="M54.064 13.3567L0.367999 13.3567L0.367999 20.9087L54.064 20.9087L54.064 13.3567ZM41.712 2.22075L34.416 2.22075L34.416 30.5728L41.712 30.5728L41.712 2.22075ZM38.576 13.4207C31.536 10.9887 21.936 5.74075 16.688 0.684747C14.704 1.96475 11.44 3.75675 9.264 4.46075C15.664 9.90075 27.248 15.1487 36.336 18.0927L38.576 13.4207ZM60.08 25.3888C57.52 19.6928 55.28 10.2848 53.936 1.83675C52.336 2.66875 49.712 3.69275 48.048 4.01275C49.2 12.9727 51.312 23.2128 54.32 30.7648L60.08 25.3888ZM33.136 20.5247L29.68 16.5567C26.8 19.1167 20.528 24.1727 17.136 26.3487L22.896 30.8927C24.56 29.3567 31.536 22.5728 33.136 20.5247ZM58.928 38.4448C42.608 36.9088 21.872 33.0687 8.496 29.3567L6.96 36.7807C20.144 40.6207 40.304 44.8448 57.52 47.2128L58.928 38.4448ZM10.544 24.1087L2.416 25.9007C3.504 34.3487 5.104 45.7408 6.768 56.4927L13.808 56.3008C12.464 44.4607 11.184 31.9167 10.544 24.1087ZM26.992 45.9968C18.288 49.6447 7.152 52.9727 0.239997 53.8047L2.736 61.9328C9.84 60.9087 20.656 57.1968 29.104 53.3568L26.992 45.9968ZM35.376 80.4287L35.376 65.9007L28.272 65.9007L28.272 73.0687L11.824 73.0687L11.824 80.4287L35.376 80.4287ZM14.832 80.4287L14.832 73.7727C12.464 70.9567 10.16 67.8207 8.432 65.1327L0.815997 68.7807C3.568 71.9807 6 74.6687 8.496 77.2287C3.568 81.0687 1.712 86.2527 1.392 93.9327C1.008 101.741 1.13599 115.373 1.51999 123.373C3.75999 123.693 7.27999 124.909 9.00799 125.741C8.30399 116.845 8.112 101.677 8.496 93.9967C8.752 87.4047 10.608 82.8607 14.832 80.4287ZM54.384 66.0927C51.248 69.7407 46.832 74.0287 43.696 75.7567L48.56 82.0927C51.568 80.1088 55.856 75.6287 58.672 71.9807L54.384 66.0927ZM42.288 90.1568C40.368 91.1808 37.744 92.1407 36.08 92.3328L37.68 99.3728C39.344 98.9887 41.84 97.9008 43.696 96.7488L42.288 90.1568ZM56.56 86.9568L51.248 86.9567L51.248 120.557L56.56 120.557L56.56 86.9568ZM28.976 86.2527L23.664 86.2527L23.664 121.389L28.976 121.389L28.976 86.2527ZM37.232 83.6288L31.792 83.6287L31.792 123.757L37.232 123.757L37.232 83.6288ZM48.048 82.6687L42.48 82.6687L42.48 124.525L48.048 124.525L48.048 82.6687ZM20.592 83.5647L15.024 83.5647L15.024 123.885L20.592 123.885L20.592 83.5647ZM60.336 99.6287L44.528 99.6287L44.528 107.245L60.336 107.245L60.336 99.6287ZM34.544 99.6287L10.8 99.6287L10.8 107.245L34.544 107.245L34.544 99.6287ZM43.824 109.613C42.096 109.165 39.472 108.141 37.616 107.309L36.016 113.517C37.552 114.477 39.728 115.757 42.096 117.165L43.824 109.613ZM50.736 156.077L42.544 156.141C41.776 164.141 41.776 175.789 42.544 183.597L50.8 183.597C49.968 176.749 49.648 163.949 50.736 156.077ZM23.408 161.197L24.048 153.901C20.784 153.133 18.288 152.749 15.728 152.749C9.19999 152.749 5.23199 158.061 5.23199 169.069C5.23199 176.301 5.67999 181.485 6.51199 185.645L15.152 185.453C13.936 179.885 13.424 175.149 13.424 169.453C13.424 162.925 15.152 160.429 18.032 160.429C19.696 160.429 21.232 160.685 23.408 161.197ZM55.024 146.221L55.728 137.261C53.68 137.197 51.248 136.877 49.52 136.621C44.528 135.917 33.776 133.997 24.112 133.997C15.408 133.997 7.59999 135.213 3.24799 136.493L3.69599 143.853C4.59199 143.789 5.67999 143.789 6.38399 143.725C7.02399 143.725 8.43199 143.917 9.39199 144.109C12.784 144.749 19.696 146.861 25.072 148.717L28.208 144.749C26.032 143.789 23.856 142.765 21.68 141.805C22.96 141.613 24.56 141.549 25.84 141.549C32.24 141.549 45.04 143.789 49.264 144.685C50.416 144.941 53.68 145.773 55.024 146.221ZM41.072 194.861L32.048 198.509C34.992 205.229 41.328 220.333 41.328 229.805C41.328 237.485 36.784 241.645 30.768 241.645C19.568 241.645 14.576 228.013 14.192 210.669L5.67999 214.445C6.83199 236.973 16.112 250.797 30.576 250.797C42.416 250.797 49.072 241.645 49.072 230.125C49.072 220.717 44.528 207.661 42.992 202.797C42.288 200.429 41.456 197.229 41.072 194.861ZM51.696 272.045L51.824 262.189C49.84 262.637 47.088 262.701 45.36 262.701C41.456 262.701 33.904 262.765 28.016 263.405C10.864 265.197 4.59199 271.277 4.59199 278.381C4.59199 283.501 8.43199 287.469 19.632 291.757L27.376 285.293C22.32 284.077 14.768 281.581 14.768 278.509C14.768 274.477 21.104 272.557 30.32 271.661C34.992 271.277 39.728 271.277 43.888 271.277C45.68 271.277 49.456 271.597 51.696 272.045ZM50.288 304.045L47.6 295.917C39.664 302.893 24.176 306.349 13.808 307.309L17.136 315.757C26.928 315.053 42.928 310.125 50.288 304.045ZM49.968 322.075L41.2 322.907C42.864 330.331 44.208 343.387 44.848 349.403C41.584 345.051 34.352 339.867 25.136 339.867C11.248 339.867 4.01598 352.539 3.18398 365.979L11.952 368.923C12.528 358.107 16.304 348.251 26.864 348.251C34.416 348.251 42.736 354.075 44.784 361.755C45.552 365.211 45.616 370.715 45.616 374.171L53.872 374.107C53.68 369.563 53.296 362.587 52.72 355.995C51.696 344.219 50.8 333.723 50.288 328.347C50.16 327.131 50.032 324.571 49.968 322.075Z" fill="white"/>
</svg>
