<svg width="31" height="187" viewBox="0 0 31 187" fill="none" xmlns="http://www.w3.org/2000/svg">
<path d="M27.032 6.42837L0.183999 6.42837L0.183999 10.2044L27.032 10.2044L27.032 6.42837ZM20.856 0.860374L17.208 0.860374L17.208 15.0364L20.856 15.0364L20.856 0.860374ZM19.288 6.46037C15.768 5.24437 10.968 2.62037 8.344 0.0923737C7.352 0.732374 5.72 1.62837 4.632 1.98037C7.832 4.70037 13.624 7.32437 18.168 8.79637L19.288 6.46037ZM30.04 12.4444C28.76 9.59638 27.64 4.89238 26.968 0.668375C26.168 1.08437 24.856 1.59637 24.024 1.75637C24.6 6.23637 25.656 11.3564 27.16 15.1324L30.04 12.4444ZM16.568 10.0124L14.84 8.02837C13.4 9.30837 10.264 11.8364 8.568 12.9244L11.448 15.1964C12.28 14.4284 15.768 11.0364 16.568 10.0124ZM29.464 18.9724C21.304 18.2044 10.936 16.2844 4.248 14.4284L3.48 18.1404C10.072 20.0604 20.152 22.1724 28.76 23.3564L29.464 18.9724ZM5.272 11.8044L1.208 12.7004C1.752 16.9244 2.552 22.6204 3.384 27.9964L6.904 27.9004C6.232 21.9804 5.592 15.7084 5.272 11.8044ZM13.496 22.7484C9.144 24.5724 3.576 26.2364 0.119999 26.6524L1.368 30.7164C4.92 30.2044 10.328 28.3484 14.552 26.4284L13.496 22.7484ZM17.688 39.9644L17.688 32.7004L14.136 32.7004L14.136 36.2844L5.912 36.2844L5.912 39.9644L17.688 39.9644ZM7.416 39.9644L7.416 36.6364C6.232 35.2284 5.08 33.6604 4.216 32.3164L0.407998 34.1404C1.784 35.7404 3 37.0844 4.248 38.3644C1.784 40.2844 0.855998 42.8764 0.695998 46.7164C0.503998 50.6204 0.567997 57.4364 0.759997 61.4364C1.88 61.5964 3.64 62.2044 4.504 62.6204C4.152 58.1724 4.056 50.5884 4.248 46.7484C4.376 43.4524 5.304 41.1804 7.416 39.9644ZM27.192 32.7964C25.624 34.6204 23.416 36.7644 21.848 37.6284L24.28 40.7964C25.784 39.8044 27.928 37.5644 29.336 35.7404L27.192 32.7964ZM21.144 44.8284C20.184 45.3404 18.872 45.8204 18.04 45.9164L18.84 49.4364C19.672 49.2444 20.92 48.7004 21.848 48.1244L21.144 44.8284ZM28.28 43.2284L25.624 43.2284L25.624 60.0284L28.28 60.0284L28.28 43.2284ZM14.488 42.8764L11.832 42.8764L11.832 60.4444L14.488 60.4444L14.488 42.8764ZM18.616 41.5644L15.896 41.5644L15.896 61.6284L18.616 61.6284L18.616 41.5644ZM24.024 41.0844L21.24 41.0844L21.24 62.0124L24.024 62.0124L24.024 41.0844ZM10.296 41.5324L7.512 41.5324L7.512 61.6924L10.296 61.6924L10.296 41.5324ZM30.168 49.5644L22.264 49.5644L22.264 53.3724L30.168 53.3724L30.168 49.5644ZM17.272 49.5644L5.4 49.5644L5.4 53.3724L17.272 53.3724L17.272 49.5644ZM21.912 54.5564C21.048 54.3324 19.736 53.8204 18.808 53.4044L18.008 56.5084C18.776 56.9884 19.864 57.6284 21.048 58.3324L21.912 54.5564Z" fill="black"/>
<path d="M25.368 77.7884L21.272 77.8204C20.888 81.8204 20.888 87.6444 21.272 91.5484L25.4 91.5484C24.984 88.1244 24.824 81.7244 25.368 77.7884ZM11.704 80.3484L12.024 76.7004C10.392 76.3164 9.144 76.1244 7.864 76.1244C4.6 76.1244 2.616 78.7804 2.616 84.2844C2.616 87.9004 2.84 90.4924 3.256 92.5724L7.576 92.4764C6.968 89.6924 6.712 87.3244 6.712 84.4764C6.712 81.2124 7.576 79.9644 9.016 79.9644C9.848 79.9644 10.616 80.0924 11.704 80.3484ZM27.512 72.8604L27.864 68.3804C26.84 68.3484 25.624 68.1884 24.76 68.0604C22.264 67.7084 16.888 66.7484 12.056 66.7484C7.704 66.7484 3.8 67.3564 1.624 67.9964L1.848 71.6764C2.296 71.6444 2.84 71.6444 3.192 71.6124C3.512 71.6124 4.216 71.7084 4.696 71.8044C6.392 72.1244 9.848 73.1804 12.536 74.1084L14.104 72.1244C13.016 71.6444 11.928 71.1324 10.84 70.6524C11.48 70.5564 12.28 70.5244 12.92 70.5244C16.12 70.5244 22.52 71.6444 24.632 72.0924C25.208 72.2204 26.84 72.6364 27.512 72.8604ZM20.536 97.1804L16.024 99.0044C17.496 102.364 20.664 109.916 20.664 114.652C20.664 118.492 18.392 120.572 15.384 120.572C9.784 120.572 7.288 113.756 7.096 105.084L2.84 106.972C3.41599 118.236 8.05599 125.148 15.288 125.148C21.208 125.148 24.536 120.572 24.536 114.812C24.536 110.108 22.264 103.58 21.496 101.148C21.144 99.9644 20.728 98.3644 20.536 97.1804ZM25.848 135.772L25.912 130.844C24.92 131.068 23.544 131.1 22.68 131.1C20.728 131.1 16.952 131.132 14.008 131.452C5.43199 132.348 2.29599 135.388 2.29599 138.94C2.29599 141.5 4.21599 143.484 9.81599 145.628L13.688 142.396C11.16 141.788 7.38399 140.54 7.38399 139.004C7.38399 136.988 10.552 136.028 15.16 135.58C17.496 135.388 19.864 135.388 21.944 135.388C22.84 135.388 24.728 135.548 25.848 135.772ZM25.144 151.772L23.8 147.708C19.832 151.196 12.088 152.924 6.90399 153.404L8.56799 157.628C13.464 157.276 21.464 154.812 25.144 151.772ZM24.984 160.788L20.6 161.204C21.432 164.916 22.104 171.444 22.424 174.452C20.792 172.276 17.176 169.684 12.568 169.684C5.62399 169.684 2.00799 176.02 1.59199 182.74L5.97599 184.212C6.26399 178.804 8.15199 173.876 13.432 173.876C17.208 173.876 21.368 176.788 22.392 180.628C22.776 182.356 22.808 185.108 22.808 186.836L26.936 186.804C26.84 184.532 26.648 181.044 26.36 177.748C25.848 171.86 25.4 166.612 25.144 163.924C25.08 163.316 25.016 162.036 24.984 160.788Z" fill="white"/>
</svg>
