<svg width="62" height="385" viewBox="0 0 62 385" fill="none" xmlns="http://www.w3.org/2000/svg">
<path d="M55.4166 13.3716L0.209505 13.3716L0.209504 21.1362L55.4166 21.1362L55.4166 13.3716ZM42.717 1.92225L35.2157 1.92225L35.2157 31.0721L42.717 31.0721L42.717 1.92225ZM39.4927 13.4374C32.2546 10.937 22.3845 5.54131 16.9888 0.343022C14.9489 1.65904 11.5931 3.50147 9.35585 4.22529C15.936 9.81838 27.846 15.2141 37.1897 18.2409L39.4927 13.4374ZM61.6019 25.7422C58.9699 19.8859 56.6668 10.2132 55.285 1.52744C53.64 2.38286 50.9421 3.43567 49.2313 3.76468C50.4157 12.9768 52.5872 23.505 55.6798 31.2695L61.6019 25.7422ZM33.8997 20.7414L30.3464 16.6617C27.3853 19.2937 20.9368 24.492 17.4494 26.7293L23.3715 31.4011C25.0823 29.8219 32.2546 22.847 33.8997 20.7414ZM60.4175 39.1657C43.6382 37.5864 22.3187 33.6384 8.56624 29.8219L6.98701 37.4548C20.542 41.4029 41.2694 45.7458 58.9699 48.1804L60.4175 39.1657ZM10.6719 24.4262L2.31514 26.2686C3.43376 34.9544 5.07878 46.667 6.78961 57.7216L14.0277 57.5242C12.6459 45.351 11.3299 32.4539 10.6719 24.4262ZM27.5827 46.9302C18.6338 50.6808 7.18442 54.1025 0.0779009 54.9579L2.64414 63.3147C9.94806 62.2618 21.0684 58.4454 29.7542 54.4973L27.5827 46.9302ZM36.2027 82.3312L36.2027 67.3943L28.8988 67.3943L28.8988 74.764L11.9879 74.764L11.9879 82.3312L36.2027 82.3312ZM15.0805 82.3312L15.0805 75.4878C12.6459 72.5926 10.2771 69.3683 8.50044 66.6047L0.67011 70.3554C3.49956 73.6454 6 76.4091 8.56624 79.0411C3.49956 82.9892 1.59132 88.3191 1.26232 96.2152C0.867512 104.243 0.999113 118.259 1.39392 126.484C3.69696 126.813 7.31602 128.063 9.09264 128.918C8.36883 119.772 8.17143 104.177 8.56624 96.281C8.82944 89.5035 10.7377 84.8316 15.0805 82.3312ZM55.7456 67.5917C52.5214 71.3424 47.9811 75.7511 44.7568 77.5277L49.7577 84.042C52.8504 82.0022 57.259 77.3961 60.1543 73.6454L55.7456 67.5917ZM43.3092 92.3329C41.3352 93.3857 38.6373 94.3728 36.9265 94.5702L38.5715 101.808C40.2824 101.413 42.8486 100.295 44.7568 99.1104L43.3092 92.3329ZM57.9828 89.0429L52.5214 89.0429L52.5214 123.588L57.9828 123.588L57.9828 89.0429ZM29.6226 88.3191L24.1611 88.3191L24.1611 124.444L29.6226 124.444L29.6226 88.3191ZM38.1109 85.6212L32.5178 85.6212L32.5178 126.878L38.1109 126.878L38.1109 85.6212ZM49.2313 84.6342L43.5066 84.6342L43.5066 127.668L49.2313 127.668L49.2313 84.6342ZM21.0026 85.5554L15.2779 85.5554L15.2779 127.01L21.0026 127.01L21.0026 85.5554ZM61.8651 102.071L45.6122 102.071L45.6122 109.902L61.8651 109.902L61.8651 102.071ZM35.3473 102.071L10.9351 102.071L10.9351 109.902L35.3473 109.902L35.3473 102.071ZM44.8884 112.336C43.1118 111.876 40.414 110.823 38.5057 109.968L36.8607 116.35C38.4399 117.337 40.6772 118.653 43.1118 120.101L44.8884 112.336Z" fill="black"/>
<path d="M51.9949 160.108L43.5724 160.174C42.7828 168.399 42.7828 180.375 43.5724 188.402L52.0607 188.402C51.2053 181.362 50.8763 168.202 51.9949 160.108ZM23.8979 165.372L24.5559 157.871C21.2 157.081 18.6338 156.686 16.0018 156.686C9.29005 156.686 5.21038 162.148 5.21038 173.466C5.21038 180.901 5.67099 186.231 6.5264 190.508L15.4095 190.311C14.1593 184.586 13.6329 179.717 13.6329 173.86C13.6329 167.149 15.4095 164.582 18.3706 164.582C20.0814 164.582 21.6606 164.846 23.8979 165.372ZM56.4036 149.975L57.1274 140.763C55.0218 140.697 52.5214 140.368 50.7447 140.104C45.6122 139.381 34.5577 137.407 24.6217 137.407C15.6728 137.407 7.64502 138.657 3.17055 139.973L3.63115 147.54C4.55237 147.474 5.67099 147.474 6.3948 147.408C7.05281 147.408 8.50043 147.606 9.48745 147.803C12.9749 148.461 20.0814 150.633 25.6087 152.541L28.833 148.461C26.5957 147.474 24.3585 146.421 22.1213 145.434C23.4373 145.237 25.0823 145.171 26.3983 145.171C32.9784 145.171 46.1386 147.474 50.4815 148.395C51.6659 148.659 55.0218 149.514 56.4036 149.975ZM42.059 199.983L32.781 203.734C35.8079 210.643 42.3222 226.172 42.3222 235.911C42.3222 243.807 37.6503 248.084 31.465 248.084C19.9498 248.084 14.8173 234.068 14.4225 216.236L5.67098 220.119C6.8554 243.281 16.3966 257.494 31.2676 257.494C43.4408 257.494 50.2841 248.084 50.2841 236.24C50.2841 226.567 45.6122 213.144 44.033 208.143C43.3092 205.708 42.4538 202.418 42.059 199.983ZM52.982 279.34L53.1136 269.206C51.0737 269.667 48.2443 269.733 46.4676 269.733C42.4538 269.733 34.6893 269.798 28.6356 270.456C11.0009 272.299 4.55236 278.55 4.55236 285.854C4.55236 291.118 8.50043 295.198 20.0156 299.606L27.9775 292.96C22.7793 291.71 15.0147 289.144 15.0147 285.985C15.0147 281.84 21.529 279.866 31.0044 278.945C35.8079 278.55 40.6772 278.55 44.9542 278.55C46.7967 278.55 50.6789 278.879 52.982 279.34ZM51.5343 312.24L48.7707 303.883C40.6114 311.056 24.6875 314.609 14.0277 315.596L17.4494 324.282C27.5169 323.558 43.9672 318.491 51.5343 312.24ZM51.2053 330.778L42.1906 331.633C43.9014 339.266 45.2832 352.69 45.9412 358.875C42.5854 354.401 35.1499 349.071 25.6745 349.071C11.3957 349.071 3.96015 362.099 3.10474 375.918L12.1195 378.944C12.7117 367.824 16.594 357.691 27.4511 357.691C35.2157 357.691 43.7698 363.679 45.8754 371.575C46.665 375.128 46.7308 380.787 46.7308 384.34L55.2192 384.274C55.0218 379.602 54.627 372.43 54.0348 365.653C52.982 353.545 52.0607 342.754 51.5343 337.227C51.4027 335.976 51.2711 333.344 51.2053 330.778Z" fill="white"/>
</svg>
