<svg width="57" height="57" viewBox="0 0 57 57" fill="none" xmlns="http://www.w3.org/2000/svg">
<circle cx="28.5" cy="28.2635" r="27.2893" stroke="white" stroke-width="0.992339"/>
<path d="M37.0076 28.6722C37.0055 28.2587 36.9114 27.8508 36.732 27.4781C36.5527 27.1055 36.2927 26.7774 35.9708 26.5178L27.7093 19.698C27.212 19.2995 26.6127 19.0487 25.9797 18.9742C25.3468 18.8998 24.7056 19.0046 24.1294 19.2768C23.6285 19.4976 23.2018 19.8578 22.9002 20.3145C22.5986 20.7713 22.4348 21.3052 22.4285 21.8524L22.4285 35.492C22.4348 36.0393 22.5986 36.5732 22.9002 37.0299C23.2018 37.4866 23.6285 37.8469 24.1294 38.0676C24.7056 38.3398 25.3468 38.4447 25.9797 38.3702C26.6127 38.2957 27.212 38.045 27.7093 37.6465L35.9708 30.8267C36.2927 30.567 36.5527 30.239 36.732 29.8663C36.9114 29.4937 37.0055 29.0858 37.0076 28.6722Z" fill="white"/>
</svg>
