<svg width="10" height="13" viewBox="0 0 10 13" fill="none" xmlns="http://www.w3.org/2000/svg">
<path d="M9.17988 6.30888C9.17862 6.06015 9.12201 5.81482 9.01416 5.59068C8.90631 5.36655 8.74991 5.16923 8.55632 5.01305L3.58737 0.911232C3.28822 0.671547 2.92777 0.520717 2.54707 0.475929C2.16637 0.431142 1.78075 0.494198 1.43415 0.657913C1.13292 0.790691 0.876279 1.00737 0.694872 1.28207C0.513466 1.55677 0.414965 1.87788 0.411133 2.20706L0.411133 10.4107C0.414965 10.7399 0.513466 11.061 0.694873 11.3357C0.876279 11.6104 1.13292 11.8271 1.43415 11.9598C1.78075 12.1236 2.16638 12.1866 2.54707 12.1418C2.92777 12.097 3.28822 11.9462 3.58737 11.7065L8.55632 7.6047C8.74991 7.44853 8.90631 7.25121 9.01416 7.02708C9.12201 6.80294 9.17862 6.55761 9.17988 6.30888Z" fill="black"/>
</svg>
