<svg width="12" height="16" viewBox="0 0 12 16" fill="none" xmlns="http://www.w3.org/2000/svg">
<path d="M11.4299 8.30868C11.4283 7.99613 11.3572 7.68785 11.2216 7.4062C11.0861 7.12456 10.8896 6.87661 10.6463 6.68036L4.40237 1.52604C4.02647 1.22485 3.57352 1.03532 3.09514 0.979037C2.61676 0.922757 2.13219 1.00199 1.69665 1.20772C1.31813 1.37456 0.995632 1.64684 0.767678 1.99203C0.539724 2.33722 0.415948 2.74073 0.411133 3.15436L0.411133 13.463C0.415949 13.8766 0.539724 14.2802 0.767679 14.6253C0.995633 14.9705 1.31813 15.2428 1.69665 15.4096C2.13219 15.6154 2.61676 15.6946 3.09514 15.6383C3.57352 15.5821 4.02647 15.3925 4.40237 15.0913L10.6463 9.93701C10.8896 9.74075 11.0861 9.49281 11.2216 9.21117C11.3572 8.92952 11.4283 8.62124 11.4299 8.30868Z" fill="black"/>
</svg>
