<svg width="12" height="16" viewBox="0 0 12 16" fill="none" xmlns="http://www.w3.org/2000/svg">
<path d="M11.4299 8.30856C11.4283 7.99601 11.3572 7.68772 11.2216 7.40608C11.0861 7.12443 10.8896 6.87649 10.6463 6.68024L4.40237 1.52591C4.02647 1.22473 3.57352 1.0352 3.09514 0.978915C2.61676 0.922635 2.13219 1.00187 1.69665 1.20759C1.31813 1.37444 0.995632 1.64672 0.767678 1.99191C0.539724 2.3371 0.415948 2.7406 0.411133 3.15424L0.411133 13.4629C0.415949 13.8765 0.539724 14.28 0.767679 14.6252C0.995633 14.9704 1.31813 15.2427 1.69665 15.4095C2.13219 15.6153 2.61676 15.6945 3.09514 15.6382C3.57352 15.5819 4.02647 15.3924 4.40237 15.0912L10.6463 9.93689C10.8896 9.74063 11.0861 9.49269 11.2216 9.21104C11.3572 8.9294 11.4283 8.62111 11.4299 8.30856Z" fill="white"/>
</svg>
