<svg width="22" height="23" viewBox="0 0 22 23" fill="none" xmlns="http://www.w3.org/2000/svg">
<g clip-path="url(#clip0_112_144)">
<path d="M4.19473 0.908203C2.03481 0.908203 0.295654 2.64736 0.295654 4.80728V18.3629C0.295654 20.5229 2.03481 22.262 4.19473 22.262H11.5418V13.914H9.33433V10.9085H11.5418V8.34067C11.5418 6.32327 12.846 4.47095 15.8506 4.47095C17.067 4.47095 17.9666 4.58774 17.9666 4.58774L17.8959 7.39444C17.8959 7.39444 16.9784 7.38577 15.9773 7.38577C14.8939 7.38577 14.7201 7.88498 14.7201 8.71372V10.9085H17.9819L17.8398 13.914H14.7201V22.262H17.7504C19.9103 22.262 21.6494 20.5229 21.6494 18.363V4.8073C21.6494 2.64738 19.9103 0.908224 17.7504 0.908224H4.19471L4.19473 0.908203Z" fill="white"/>
</g>
<defs>
<clipPath id="clip0_112_144">
<rect width="21.3538" height="21.3538" fill="white" transform="translate(0.295654 0.908203)"/>
</clipPath>
</defs>
</svg>
