<svg width="22" height="23" viewBox="0 0 22 23" fill="none" xmlns="http://www.w3.org/2000/svg">
<path d="M11.2329 8.04828C9.28537 8.04828 7.69602 9.63763 7.69602 11.5852C7.69602 13.5327 9.28537 15.1221 11.2329 15.1221C13.1805 15.1221 14.7698 13.5327 14.7698 11.5852C14.7698 9.63763 13.1805 8.04828 11.2329 8.04828ZM21.841 11.5852C21.841 10.1205 21.8542 8.66916 21.772 7.20718C21.6897 5.50904 21.3023 4.00194 20.0606 2.76018C18.8162 1.51577 17.3117 1.13103 15.6136 1.04878C14.1489 0.966526 12.6976 0.979793 11.2356 0.979793C9.77093 0.979793 8.31956 0.966526 6.85757 1.04878C5.15943 1.13103 3.65234 1.51842 2.41057 2.76018C1.16616 4.0046 0.781424 5.50904 0.69917 7.20718C0.616917 8.67182 0.630184 10.1232 0.630184 11.5852C0.630184 13.0472 0.616917 14.5012 0.69917 15.9632C0.781424 17.6613 1.16881 19.1684 2.41057 20.4102C3.65499 21.6546 5.15943 22.0393 6.85757 22.1216C8.32221 22.2038 9.77358 22.1906 11.2356 22.1906C12.7002 22.1906 14.1516 22.2038 15.6136 22.1216C17.3117 22.0393 18.8188 21.6519 20.0606 20.4102C21.305 19.1658 21.6897 17.6613 21.772 15.9632C21.8569 14.5012 21.841 13.0498 21.841 11.5852V11.5852ZM11.2329 17.0272C8.22138 17.0272 5.79092 14.5967 5.79092 11.5852C5.79092 8.57364 8.22138 6.14319 11.2329 6.14319C14.2445 6.14319 16.6749 8.57364 16.6749 11.5852C16.6749 14.5967 14.2445 17.0272 11.2329 17.0272ZM16.8978 7.19126C16.1947 7.19126 15.6268 6.62344 15.6268 5.92031C15.6268 5.21717 16.1947 4.64936 16.8978 4.64936C17.6009 4.64936 18.1687 5.21717 18.1687 5.92031C18.169 6.08727 18.1362 6.25263 18.0724 6.40693C18.0086 6.56122 17.915 6.70141 17.797 6.81947C17.6789 6.93753 17.5387 7.03114 17.3844 7.09494C17.2301 7.15873 17.0648 7.19146 16.8978 7.19126V7.19126Z" fill="white"/>
</svg>
