<svg width="28" height="19" viewBox="0 0 28 19" fill="none" xmlns="http://www.w3.org/2000/svg">
<path d="M26.6041 3.36647C26.4503 2.81767 26.1506 2.32081 25.7369 1.92871C25.3116 1.52456 24.7903 1.23546 24.2222 1.0887C22.0961 0.528319 13.5783 0.528319 13.5783 0.528319C10.0273 0.487918 6.47714 0.665613 2.94793 1.0604C2.37984 1.218 1.8595 1.51356 1.43319 1.92079C1.01432 2.32381 0.710919 2.8208 0.552427 3.36534C0.171697 5.4164 -0.0132882 7.49899 -3.37144e-05 9.58504C-0.0136188 11.6692 0.170912 13.7511 0.552427 15.8047C0.707523 16.347 1.00979 16.8417 1.4298 17.2414C1.8498 17.641 2.37283 17.9297 2.94793 18.0825C5.1023 18.6418 13.5783 18.6418 13.5783 18.6418C17.1338 18.6822 20.6884 18.5045 24.2222 18.1097C24.7903 17.9629 25.3116 17.6738 25.7369 17.2697C26.1504 16.8777 26.4498 16.3807 26.603 15.8319C26.9936 13.7817 27.1836 11.6982 27.1701 9.61108C27.1995 7.51513 27.0098 5.42185 26.6041 3.36534V3.36647ZM10.8703 13.4613V5.7099L17.9572 9.58618L10.8703 13.4613Z" fill="white"/>
</svg>
