<?xml version="1.0" standalone="no"?>
<!DOCTYPE svg PUBLIC "-//W3C//DTD SVG 20010904//EN"
 "http://www.w3.org/TR/2001/REC-SVG-20010904/DTD/svg10.dtd">
<svg version="1.0" xmlns="http://www.w3.org/2000/svg"
 width="2000.000000pt" height="2000.000000pt" viewBox="0 0 2000.000000 2000.000000"
 preserveAspectRatio="xMidYMid meet">
<metadata>
Created by potrace 1.14, written by Peter Selinger 2001-2017
</metadata>
<g transform="translate(0.000000,2000.000000) scale(0.100000,-0.100000)"
fill="#000000" stroke="none">
<path d="M11432 19935 c-79 -24 -110 -52 -166 -151 -95 -166 -131 -390 -130
-824 0 -190 7 -350 19 -410 3 -14 7 -45 10 -70 3 -25 8 -56 10 -70 6 -29 13
-79 19 -130 6 -42 15 -104 21 -145 3 -16 7 -52 10 -80 3 -27 9 -63 12 -80 10
-45 10 -47 17 -107 4 -31 11 -83 17 -115 6 -32 12 -68 14 -80 2 -12 6 -34 9
-50 3 -15 9 -46 12 -68 9 -62 55 -272 100 -455 56 -231 178 -608 274 -851 76
-189 100 -243 188 -413 40 -78 111 -220 158 -316 173 -354 163 -336 283 -520
20 -30 41 -63 46 -73 34 -59 276 -427 379 -577 70 -100 210 -288 257 -345 131
-156 363 -374 444 -418 59 -32 153 -55 205 -50 114 12 220 106 244 218 13 60
23 129 31 205 1 14 5 48 9 75 4 28 8 64 10 80 2 17 7 50 10 75 10 79 18 144
22 180 4 41 15 128 19 150 2 8 6 49 10 90 4 41 8 86 10 100 2 14 6 59 10 100
4 41 8 82 10 90 23 119 22 581 -1 703 -2 10 -6 45 -9 78 -4 33 -8 70 -11 82
-2 12 -7 38 -10 57 -3 19 -12 67 -21 105 -14 66 -17 83 -27 130 -34 162 -239
823 -287 920 -5 11 -11 29 -14 40 -10 48 -87 240 -116 293 -56 100 -133 255
-158 317 -13 33 -34 83 -47 110 -12 28 -42 97 -68 155 -60 139 -75 166 -191
360 -91 154 -121 204 -149 255 -6 11 -18 31 -27 45 -9 14 -42 70 -74 125 -141
242 -314 499 -449 665 -57 71 -242 262 -296 305 -41 33 -162 119 -201 143 -39
23 -234 122 -243 122 -2 0 -17 5 -33 12 -64 26 -107 30 -161 13z"/>
<path d="M1395 16773 c-102 -12 -237 -89 -294 -167 -70 -95 -84 -178 -56 -336
3 -19 11 -62 17 -95 5 -33 12 -71 15 -85 5 -28 71 -354 78 -385 3 -11 7 -29 9
-40 33 -150 119 -458 148 -530 11 -27 29 -72 40 -100 18 -46 94 -221 138 -320
9 -22 41 -105 70 -185 66 -180 131 -331 193 -445 6 -11 18 -33 27 -50 29 -56
94 -170 102 -180 4 -5 39 -58 77 -116 38 -59 100 -149 138 -200 38 -52 84
-121 103 -154 24 -40 94 -119 216 -240 300 -298 427 -412 668 -600 21 -16 44
-35 50 -41 17 -16 281 -213 361 -269 39 -27 72 -53 73 -57 2 -5 10 -8 18 -8 8
0 14 -4 14 -10 0 -5 7 -10 15 -10 8 0 15 -4 15 -9 0 -5 14 -14 30 -21 17 -7
30 -16 30 -21 0 -5 4 -9 10 -9 5 0 47 -24 92 -54 93 -60 282 -154 498 -246 80
-34 188 -82 241 -106 53 -24 119 -51 145 -59 66 -20 227 -15 274 8 18 9 37 17
43 17 13 0 87 57 115 89 57 63 164 347 189 499 10 61 10 258 -1 347 -4 39 -9
84 -11 100 -4 42 -16 125 -21 155 -2 14 -7 41 -10 60 -41 254 -119 472 -264
740 -106 195 -141 257 -237 420 -33 58 -112 193 -173 300 -425 738 -762 1162
-1161 1463 -76 58 -151 122 -239 207 -121 116 -200 170 -365 251 -60 30 -112
56 -115 59 -3 3 -23 14 -45 26 -22 12 -105 59 -185 105 -187 108 -286 160
-385 199 -95 38 -222 76 -285 85 -24 4 -49 9 -54 12 -10 7 -305 11 -351 6z"/>
<path d="M5980 14646 c-52 -29 -120 -154 -120 -222 0 -53 42 -119 107 -167 89
-65 134 -134 202 -307 12 -30 26 -64 31 -75 8 -18 50 -129 141 -375 15 -41 46
-122 69 -180 23 -58 52 -134 65 -170 20 -57 41 -111 70 -185 4 -11 32 -85 62
-165 71 -187 114 -299 170 -435 52 -127 49 -120 151 -345 13 -30 33 -74 43
-98 l19 -43 -23 -9 c-12 -5 -170 -57 -352 -116 -324 -105 -398 -131 -640 -222
-222 -83 -290 -110 -345 -134 -30 -14 -59 -26 -65 -28 -26 -7 -73 -27 -245
-102 -207 -91 -383 -180 -540 -272 -57 -33 -113 -65 -122 -71 -48 -28 -167
-104 -403 -261 -406 -268 -530 -368 -825 -666 -368 -369 -603 -677 -889 -1161
-44 -76 -81 -142 -81 -147 0 -5 -4 -10 -8 -12 -8 -3 -144 -273 -176 -348 -48
-116 -115 -319 -141 -430 -2 -8 -24 -100 -49 -205 -25 -104 -49 -210 -52 -235
-3 -25 -8 -48 -10 -51 -2 -3 -8 -34 -14 -70 -5 -35 -12 -75 -14 -89 -8 -46
-17 -105 -22 -140 -2 -19 -6 -49 -9 -66 -4 -29 -7 -60 -20 -189 -27 -281 -23
-855 9 -1173 4 -31 9 -82 12 -112 3 -30 7 -68 9 -85 2 -16 6 -50 9 -75 8 -69
18 -143 21 -165 7 -51 16 -103 20 -125 3 -14 7 -38 9 -55 3 -16 7 -45 10 -62
3 -18 8 -48 11 -65 11 -60 46 -232 60 -288 8 -30 16 -66 19 -80 5 -29 32 -139
46 -190 130 -473 253 -818 448 -1260 98 -221 141 -296 328 -565 72 -104 168
-251 213 -327 115 -195 199 -297 425 -517 54 -53 147 -143 205 -201 117 -115
113 -112 221 -189 66 -47 276 -215 290 -231 3 -3 50 -38 105 -78 55 -40 108
-80 118 -88 9 -7 20 -14 23 -14 3 0 24 -13 47 -29 163 -115 512 -295 752 -386
144 -55 407 -139 470 -151 17 -2 46 -9 65 -14 70 -18 294 -45 453 -56 32 -2
75 -6 95 -9 20 -3 64 -7 97 -10 33 -3 71 -7 85 -10 14 -2 57 -7 95 -10 39 -3
86 -8 105 -10 19 -3 62 -8 95 -11 33 -3 74 -7 90 -9 17 -2 62 -6 100 -9 70 -7
112 -11 215 -22 30 -3 96 -7 145 -9 380 -16 454 -21 580 -40 17 -3 55 -7 85
-10 30 -4 80 -10 110 -15 49 -8 83 -12 205 -25 232 -25 917 -24 1160 1 27 2
79 7 115 10 36 2 79 6 95 8 17 3 62 7 100 10 39 4 86 9 105 11 19 2 64 7 100
10 36 3 83 8 105 11 78 9 111 13 175 19 36 4 76 8 90 10 14 2 54 7 90 10 35 4
67 8 70 10 3 1 34 6 70 9 36 4 75 8 85 10 11 2 43 7 70 10 45 6 131 19 195 30
14 3 43 7 65 10 22 3 51 8 65 10 56 11 87 17 120 22 71 11 337 65 415 84 44
10 96 22 115 25 19 3 62 13 95 21 33 9 69 17 80 20 11 2 34 7 50 11 17 4 32 7
35 8 3 1 19 4 35 8 17 4 39 9 50 12 50 10 201 48 215 53 8 3 20 6 25 7 40 10
300 79 340 91 86 25 369 104 425 119 8 2 16 4 18 5 1 2 5 3 10 4 41 10 313 93
432 133 58 19 110 36 115 37 6 2 17 6 25 9 8 3 56 19 105 36 113 38 288 100
380 136 39 14 90 33 115 42 25 8 59 21 75 28 17 7 113 45 215 85 359 140 664
277 743 332 15 11 27 16 27 13 0 -3 13 3 29 14 16 12 31 21 34 21 2 0 51 26
108 59 57 32 235 129 396 214 297 160 314 169 431 235 87 50 244 144 257 155
6 4 42 28 80 54 235 154 555 405 761 595 548 505 770 792 962 1244 112 263
266 692 308 858 8 34 23 86 34 116 10 30 20 69 23 87 3 17 7 35 10 40 10 17
51 233 64 338 8 62 7 469 -1 590 -9 137 -16 235 -21 290 -3 28 -7 75 -10 105
-8 88 -14 152 -20 190 -9 59 -15 103 -19 140 -19 151 -96 570 -131 710 -2 8
-8 38 -14 65 -6 28 -15 66 -21 85 -13 47 -71 262 -74 275 -13 56 -83 272 -202
630 -51 154 -107 327 -124 385 -18 58 -36 119 -41 135 -21 72 -71 222 -79 240
-5 11 -12 31 -16 45 -26 93 -310 650 -436 855 -60 97 -76 121 -163 255 -73
110 -223 319 -245 340 -3 3 -21 25 -40 50 -19 25 -44 56 -56 70 -69 82 -218
256 -223 260 -3 3 -35 39 -71 80 -36 41 -72 82 -80 90 -8 8 -53 58 -100 110
-163 182 -259 282 -341 350 -29 25 -57 50 -63 56 -24 23 -166 124 -231 164
-96 59 -256 137 -400 194 -135 55 -437 156 -464 156 -10 0 -21 3 -25 7 -3 4
-12 8 -19 9 -7 1 -68 15 -137 32 -124 30 -198 47 -255 57 -100 19 -254 46
-280 50 -44 6 -100 14 -142 20 -21 3 -51 7 -68 10 -16 2 -57 7 -90 10 -33 3
-77 8 -98 11 -21 3 -64 7 -95 9 -31 3 -77 7 -102 10 -25 3 -85 8 -135 10 -49
3 -142 8 -205 12 -148 9 -1070 9 -1305 0 -390 -15 -662 -27 -710 -32 -22 -2
-78 -7 -125 -10 -89 -7 -155 -12 -230 -20 -25 -2 -74 -7 -110 -10 -36 -3 -81
-8 -100 -10 -19 -3 -53 -7 -75 -9 -22 -3 -56 -7 -75 -10 -19 -3 -57 -8 -85
-10 -66 -7 -163 -20 -226 -31 -13 -2 -44 -6 -69 -9 -25 -3 -54 -8 -65 -10 -11
-2 -40 -7 -65 -10 -25 -3 -56 -8 -70 -11 -59 -10 -338 -56 -370 -61 -19 -3
-43 -7 -53 -10 -10 -3 -32 -7 -50 -9 -18 -3 -52 -9 -77 -14 -39 -8 -133 -27
-180 -35 -8 -2 -31 -6 -50 -9 -19 -4 -46 -9 -60 -11 -14 -2 -36 -7 -50 -10
-14 -3 -36 -8 -50 -10 -14 -3 -50 -10 -80 -16 -30 -6 -66 -13 -80 -16 -14 -2
-36 -7 -50 -10 -34 -8 -59 -13 -95 -20 -16 -3 -59 -11 -95 -19 -36 -8 -76 -17
-90 -19 -14 -3 -36 -8 -50 -11 -14 -3 -37 -7 -52 -10 -14 -3 -64 -14 -110 -25
-46 -10 -94 -21 -108 -24 -43 -7 -273 -56 -310 -66 -19 -5 -52 -11 -74 -14
-21 -4 -42 -8 -46 -11 -4 -3 -25 -7 -46 -11 -22 -3 -49 -7 -62 -9 -30 -5 -71
11 -88 33 -14 18 -25 45 -134 342 -39 107 -82 222 -95 255 -13 33 -40 105 -60
160 -20 55 -40 109 -45 120 -5 11 -19 44 -30 74 -12 30 -48 109 -80 175 -66
135 -72 166 -55 267 10 60 10 76 -5 119 -20 59 -53 97 -107 124 -21 10 -46 22
-56 28 -66 34 -174 15 -232 -41 -70 -66 -74 -75 -71 -148 3 -91 39 -168 103
-220 110 -88 146 -141 220 -318 60 -143 88 -210 89 -215 0 -3 5 -16 11 -30 6
-14 41 -101 78 -195 37 -93 73 -183 80 -200 53 -121 151 -413 141 -423 -3 -3
-36 -13 -73 -23 -130 -34 -219 -57 -295 -78 -43 -12 -82 -21 -87 -21 -6 0 -15
17 -20 38 -35 125 -98 296 -212 572 -28 69 -66 161 -84 205 -29 71 -279 655
-325 760 -17 39 -74 177 -91 223 -5 12 -13 32 -18 45 -154 379 -180 460 -188
582 -7 103 -29 147 -106 208 -91 73 -155 92 -207 63z"/>
</g>
</svg>
